<?xml version="1.0" encoding="utf-8"?>
<!-- Generator: Adobe Illustrator 18.0.0, SVG Export Plug-In . SVG Version: 6.00 Build 0)  -->
<!DOCTYPE svg PUBLIC "-//W3C//DTD SVG 1.1//EN" "http://www.w3.org/Graphics/SVG/1.1/DTD/svg11.dtd">
<svg version="1.1" xmlns="http://www.w3.org/2000/svg" xmlns:xlink="http://www.w3.org/1999/xlink" x="0px" y="0px"
	 viewBox="0 0 16 16" enable-background="new 0 0 16 16" xml:space="preserve">
<g id="Layer_1">
</g>
<g id="Layer_101">
</g>
<g id="Layer_100">
</g>
<g id="Layer_99">
</g>
<g id="Layer_98">
</g>
<g id="Layer_97">
</g>
<g id="Layer_96">
</g>
<g id="Layer_95">
</g>
<g id="Layer_94">
</g>
<g id="Layer_93">
</g>
<g id="Layer_92">
</g>
<g id="Layer_91">
</g>
<g id="Layer_90">
</g>
<g id="Layer_89">
</g>
<g id="Layer_88">
</g>
<g id="Layer_87">
</g>
<g id="Layer_86">
</g>
<g id="Layer_85">
</g>
<g id="Layer_84">
</g>
<g id="Layer_83">
</g>
<g id="Layer_82">
</g>
<g id="Layer_81">
</g>
<g id="Layer_80">
</g>
<g id="Layer_79">
</g>
<g id="Layer_78">
</g>
<g id="Layer_77">
</g>
<g id="Layer_76">
</g>
<g id="Layer_75">
</g>
<g id="Layer_74">
</g>
<g id="Layer_73">
</g>
<g id="Layer_72">
</g>
<g id="Layer_71">
</g>
<g id="Layer_70">
</g>
<g id="Layer_69">
</g>
<g id="Layer_68">
</g>
<g id="Layer_67">
</g>
<g id="Layer_66">
</g>
<g id="Layer_65">
</g>
<g id="Layer_64">
</g>
<g id="Layer_63">
</g>
<g id="Layer_62">
</g>
<g id="Layer_61">
</g>
<g id="Layer_60">
</g>
<g id="Layer_59">
</g>
<g id="Layer_58">
</g>
<g id="Layer_57">
</g>
<g id="Layer_56">
</g>
<g id="Layer_55">
</g>
<g id="Layer_54">
</g>
<g id="Layer_53">
</g>
<g id="Layer_52">
</g>
<g id="Layer_51">
</g>
<g id="Layer_50">
</g>
<g id="Layer_49">
</g>
<g id="Layer_48">
</g>
<g id="Layer_47">
</g>
<g id="Layer_46">
</g>
<g id="Layer_45">
</g>
<g id="Layer_44">
</g>
<g id="Layer_43">
</g>
<g id="Layer_42">
</g>
<g id="Layer_41">
</g>
<g id="Layer_40">
</g>
<g id="Layer_39">
</g>
<g id="Layer_38">
</g>
<g id="Layer_37">
</g>
<g id="Layer_36">
</g>
<g id="Layer_35">
</g>
<g id="Layer_34">
</g>
<g id="Layer_33">
</g>
<g id="Layer_32">
	<path fill="#3F3F3F" d="M8,0C3.582,0,0,3.582,0,8s3.582,8,8,8s8-3.582,8-8S12.418,0,8,0z M12.751,12.751
		c-0.617,0.617-1.334,1.101-2.134,1.44C10.414,14.277,10,14.352,10,14.417v-1.199c0-0.63-0.218-1.094-0.65-1.391
		c0.271-0.026,0.52-0.063,0.745-0.109c0.226-0.046,0.465-0.115,0.719-0.203c0.253-0.088,0.478-0.193,0.679-0.315
		c0.201-0.122,0.392-0.281,0.578-0.477c0.185-0.195,0.34-0.417,0.465-0.664s0.224-0.544,0.297-0.891
		c0.073-0.347,0.109-0.727,0.109-1.144c0-0.808-0.264-1.495-0.789-2.063c0.239-0.625,0.214-1.305-0.078-2.039L11.88,3.898
		c-0.135-0.017-0.379,0.042-0.73,0.172c-0.352,0.13-0.746,0.344-1.185,0.641c-0.62-0.172-1.263-0.258-1.93-0.258
		c-0.672,0-1.313,0.086-1.922,0.258C5.838,4.523,5.576,4.368,5.329,4.245c-0.247-0.123-0.445-0.206-0.594-0.25
		C4.586,3.951,4.449,3.923,4.321,3.913C4.193,3.903,4.111,3.9,4.075,3.905C4.039,3.91,4.012,3.915,3.997,3.921
		C3.705,4.661,3.679,5.34,3.919,5.96C3.393,6.528,3.13,7.215,3.13,8.023c0,0.417,0.036,0.798,0.109,1.145
		c0.073,0.347,0.172,0.642,0.297,0.891c0.125,0.248,0.28,0.47,0.465,0.664c0.184,0.195,0.378,0.354,0.578,0.477
		c0.2,0.123,0.427,0.227,0.68,0.315c0.253,0.088,0.492,0.156,0.72,0.203c0.227,0.047,0.433,0.083,0.704,0.109
		C6.255,12.12,6,12.583,6,13.219v1.223c0-0.07-0.426-0.153-0.656-0.25c-0.8-0.339-1.498-0.823-2.115-1.44
		c-0.617-0.617-1.091-1.336-1.43-2.136C1.45,9.788,1.278,8.908,1.278,8s0.179-1.787,0.529-2.615c0.339-0.8,0.824-1.519,1.442-2.136
		c0.617-0.617,1.337-1.102,2.136-1.44c0.827-0.35,1.707-0.526,2.616-0.526c0.908,0,1.787,0.177,2.615,0.526
		c0.8,0.339,1.519,0.823,2.136,1.44c0.617,0.617,1.103,1.336,1.44,2.136c0.35,0.827,0.526,1.707,0.526,2.615
		s-0.177,1.787-0.526,2.615C13.854,11.415,13.369,12.134,12.751,12.751L12.751,12.751z"/>
</g>
<g id="Layer_31">
</g>
<g id="Layer_30">
</g>
<g id="Layer_29">
</g>
<g id="Layer_28">
</g>
<g id="Layer_27">
</g>
<g id="Layer_26">
</g>
<g id="Layer_25">
</g>
<g id="Layer_24">
</g>
<g id="Layer_23">
</g>
<g id="Layer_22">
</g>
<g id="Layer_21">
</g>
<g id="Layer_20">
</g>
<g id="Layer_19">
</g>
<g id="Layer_18">
</g>
<g id="Layer_17">
</g>
<g id="Layer_16">
</g>
<g id="Layer_15">
</g>
<g id="Layer_14">
</g>
<g id="Layer_13">
</g>
<g id="Layer_12">
</g>
<g id="Layer_11">
</g>
<g id="Layer_10">
</g>
<g id="Layer_9">
</g>
<g id="Layer_8">
</g>
<g id="Layer_7">
</g>
<g id="Layer_6">
</g>
<g id="Layer_5">
</g>
<g id="Layer_4">
</g>
<g id="Layer_3">
</g>
<g id="Layer_2">
</g>
</svg>
